<svg version="1.1" id="Layer_1" xmlns="http://www.w3.org/2000/svg" xmlns:xlink="http://www.w3.org/1999/xlink" x="0px" y="0px"
	 width="100%" viewBox="0 0 1024 256" enable-background="new 0 0 1024 256" xml:space="preserve">
<path fill="#000000" opacity="1.000000" stroke="none" 
	d="
M1.000000,115.468636 
	C3.855315,107.040894 5.795935,98.759125 9.937228,91.258698 
	C23.212763,67.215012 43.109322,49.860565 65.924469,35.388836 
	C88.600281,21.005476 113.162239,10.848769 138.648132,2.734916 
	C139.912766,2.332301 141.143021,1.821670 142.694641,1.180668 
	C145.700012,1.000000 148.400024,1.000000 151.550018,1.000000 
	C143.351608,5.660146 133.846390,8.272291 124.953232,12.374640 
	C96.800880,25.361099 70.319756,40.816151 48.439327,63.218327 
	C38.586155,73.306458 30.333572,84.533440 24.494215,97.417122 
	C13.140115,122.468292 16.365906,146.317383 30.655519,169.174072 
	C44.239407,190.901932 63.666740,206.422241 84.977448,219.843353 
	C108.492752,234.652878 133.843674,245.545212 160.097519,254.448959 
	C161.654816,254.977081 163.139969,255.717896 164.829346,256.679871 
	C162.629440,257.000000 160.258896,257.000000 157.444168,257.000000 
	C151.523865,254.052383 145.372925,253.140030 139.540421,251.282196 
	C106.828949,240.862564 75.679703,227.276474 48.086998,206.455994 
	C30.283121,193.021790 15.600212,176.969803 6.401577,156.329056 
	C4.008332,150.958893 2.974778,145.232101 1.146419,139.338242 
	C1.000000,131.312424 1.000000,123.624847 1.000000,115.468636 
z"/>
<path fill="#000000" opacity="1.000000" stroke="none" 
	d="
M882.550049,0.999994 
	C891.262085,3.960533 899.571228,6.797042 907.777466,9.904970 
	C932.129517,19.127684 955.424561,30.435371 976.150269,46.388462 
	C996.596863,62.126617 1014.078857,80.310349 1022.049133,105.754593 
	C1023.039673,108.916824 1023.800659,112.150986 1024.833984,115.675903 
	C1025.000000,123.687584 1025.000000,131.375168 1025.000000,139.531372 
	C1020.665588,157.656906 1012.298828,173.130203 1000.193237,186.700500 
	C982.296753,206.762375 960.703613,221.851776 937.012024,234.140198 
	C921.162598,242.361053 904.714783,249.180923 887.684631,254.580139 
	C885.946228,255.131256 884.285278,255.926743 882.294189,256.804443 
	C879.629456,257.000000 877.258850,257.000000 874.444153,257.000000 
	C883.423279,252.845917 892.948242,248.906418 902.251282,244.498611 
	C933.850342,229.526871 962.899414,210.913361 985.556580,183.752411 
	C997.470093,169.470749 1005.872925,153.367004 1008.134949,134.508377 
	C1009.802917,120.602051 1006.250793,107.707291 1000.531372,95.349350 
	C991.127258,75.029839 975.843262,59.564354 958.419189,46.053131 
	C934.225769,27.292768 907.013977,14.117323 878.544312,3.318433 
	C877.153259,2.790815 875.798645,2.167198 874.213501,1.294139 
	C876.700012,1.000000 879.400024,1.000000 882.550049,0.999994 
z"/>
<path fill="#000000" opacity="1.000000" stroke="none" 
	d="
M495.252899,154.867325 
	C494.952454,168.268585 489.909515,175.161163 477.327820,177.366943 
	C462.679993,179.934921 447.792145,180.202606 433.147156,177.172455 
	C421.224762,174.705627 415.992920,167.700470 415.971619,155.494598 
	C415.917297,124.349663 415.925476,93.204582 415.945709,62.059578 
	C415.950989,53.941936 416.013123,53.913967 423.939606,53.881111 
	C433.742523,53.840477 434.156006,52.140495 434.120056,63.703671 
	C434.068268,80.358315 434.256348,97.014694 434.068451,113.667244 
	C434.018463,118.096710 435.120422,119.886185 439.925507,119.709518 
	C449.566650,119.355057 459.230865,119.658157 468.885284,119.618919 
	C471.908295,119.606636 474.847961,119.996712 477.772156,120.717102 
	C489.352509,123.570023 494.673065,129.945068 495.198608,141.897980 
	C495.381378,146.054016 495.244171,150.224106 495.252899,154.867325 
M471.028381,161.752899 
	C475.923553,161.086884 477.732727,157.960571 477.715149,153.372604 
	C477.704956,150.708145 477.780182,148.040817 477.682159,145.379745 
	C477.447845,139.019638 475.263275,136.471207 468.940521,136.287689 
	C458.790405,135.993118 448.627075,136.184555 438.471069,136.043289 
	C435.174591,135.997437 434.078064,137.472549 434.179840,140.593445 
	C434.331818,145.251968 434.249451,149.918289 434.256561,154.581314 
	C434.263275,158.982605 436.437164,161.255692 440.828888,161.803162 
	C450.625610,163.024399 460.405670,163.091431 471.028381,161.752899 
z"/>
<path fill="#000000" opacity="1.000000" stroke="none" 
	d="
M576.688843,126.998817 
	C575.955627,121.567131 577.736633,119.440208 583.094177,119.274506 
	C590.458618,119.046745 597.719116,119.156494 604.895081,120.825783 
	C614.167908,122.982864 619.812195,128.668015 620.852478,138.273987 
	C621.659607,145.726562 621.791077,153.277390 620.890686,160.693558 
	C619.644165,170.960815 612.169495,177.142731 600.346375,178.221039 
	C587.062378,179.432602 573.737976,179.442215 560.464355,178.198288 
	C542.402710,176.505646 532.916443,159.734192 541.808655,145.238312 
	C546.927185,136.894135 555.613770,135.252213 564.427917,134.943542 
	C574.864319,134.578049 585.323303,134.857666 595.773438,134.151031 
	C591.635559,134.151031 587.497620,134.149658 583.359741,134.151352 
	C576.787354,134.154053 576.787354,134.154907 576.688843,126.998817 
M557.799194,159.833878 
	C560.122375,162.155258 563.284668,162.395981 566.155823,162.471832 
	C575.444946,162.717285 584.745605,162.583618 594.040710,162.488373 
	C595.676758,162.471619 597.336060,162.044464 598.935364,161.620743 
	C603.871033,160.313065 603.281189,156.127411 602.979614,152.658661 
	C602.654724,148.921951 599.458618,150.823761 597.437317,150.774139 
	C593.955261,150.688644 590.467651,150.846100 586.982178,150.882446 
	C578.849121,150.967255 570.705750,150.820236 562.586548,151.197845 
	C557.357239,151.441071 555.830444,154.180557 557.799194,159.833878 
z"/>
<path fill="#000000" opacity="1.000000" stroke="none" 
	d="
M332.723450,164.748383 
	C327.965027,147.083725 337.384583,135.422775 356.713959,134.898773 
	C367.345215,134.610565 377.990692,134.847183 388.640015,134.166580 
	C383.912598,134.166580 379.175385,133.978287 374.460632,134.222717 
	C370.247742,134.441132 368.697418,132.560883 368.942780,128.603455 
	C369.066254,126.611786 368.987335,124.607231 369.120758,122.616608 
	C369.232483,120.950516 370.016968,119.863838 371.890533,119.708984 
	C380.041351,119.035324 388.206360,118.758621 396.210205,120.680862 
	C407.924469,123.494202 412.922821,129.881592 413.227600,142.024139 
	C413.348724,146.851044 413.291473,151.683655 413.250610,156.513123 
	C413.153229,168.019531 408.314423,175.020813 396.941772,177.170334 
	C380.491791,180.279510 363.805084,180.144211 347.325867,176.977997 
	C340.685150,175.702103 335.473389,171.778625 332.723450,164.748383 
M390.566315,150.733856 
	C385.910492,150.790359 381.254730,150.850922 376.598877,150.902420 
	C369.449768,150.981537 362.297638,150.957428 355.152832,151.175171 
	C352.074677,151.268982 349.576202,152.647354 349.363464,156.152542 
	C349.154633,159.593414 351.181213,161.398819 354.410767,161.788223 
	C366.333740,163.225876 378.266510,163.149017 390.190155,161.763550 
	C390.993866,161.670166 391.848083,161.413712 392.532684,160.994507 
	C395.862030,158.955688 395.327972,155.609329 395.140930,152.502670 
	C394.987213,149.949387 392.962646,150.565231 390.566315,150.733856 
z"/>
<path fill="#000000" opacity="1.000000" stroke="none" 
	d="
M623.928467,142.369629 
	C625.900940,128.130524 630.639404,122.300987 644.145935,120.350914 
	C658.153137,118.328552 672.413086,118.070877 686.425476,120.648727 
	C698.239136,122.822044 703.008789,128.126877 704.799988,139.944641 
	C705.749939,146.212418 705.728638,152.630661 704.877136,158.885574 
	C703.243347,170.887344 695.914490,177.080811 682.501221,178.236191 
	C670.530884,179.267273 658.533691,179.362061 646.563477,178.245209 
	C631.153809,176.807449 623.945312,168.802002 623.894470,153.325638 
	C623.882996,149.826385 623.905762,146.327026 623.928467,142.369629 
M645.285156,137.586014 
	C643.196350,139.037781 642.317749,141.100159 642.307861,143.576294 
	C642.292480,147.400620 642.261230,151.225601 642.313843,155.049271 
	C642.368042,158.991013 644.443054,161.168091 648.327820,161.707077 
	C659.095520,163.200958 669.862244,163.098190 680.630005,161.725098 
	C684.469910,161.235443 686.693420,159.180664 686.757568,155.183517 
	C686.821533,151.194809 686.844055,147.204407 686.808167,143.215424 
	C686.774719,139.503922 684.672058,136.844788 681.228821,136.616058 
	C669.490356,135.836334 657.705811,134.833176 645.285156,137.586014 
z"/>
<path fill="#000000" opacity="1.000000" stroke="none" 
	d="
M661.824219,55.569187 
	C661.969543,65.341713 662.048645,74.671196 662.041748,84.000610 
	C662.039429,87.170494 661.925415,90.173546 666.477661,90.029625 
	C668.327637,89.971138 669.043579,91.437881 669.076172,93.083549 
	C669.142151,96.413506 669.126587,99.746330 669.076233,103.076935 
	C669.036804,105.685646 667.217834,106.665833 665.059387,106.479393 
	C656.923706,105.776672 649.726868,109.098892 642.095703,110.972374 
	C623.534607,115.529205 607.003418,102.581551 608.002014,79.814308 
	C608.161438,76.179535 608.959351,72.567230 610.254944,69.097633 
	C613.920227,59.281189 623.230225,52.181416 633.644653,52.833317 
	C641.348083,53.315521 648.967773,53.424114 656.641846,52.959496 
	C658.589050,52.841602 660.760132,52.705082 661.824219,55.569187 
M640.695801,95.417419 
	C646.725159,88.739517 645.654297,81.071045 643.476135,73.429161 
	C642.451599,69.834824 639.712585,67.455147 635.776062,67.460968 
	C631.660767,67.467072 629.023621,69.915932 627.660583,73.669312 
	C625.731445,78.981308 625.727783,84.392731 627.369751,89.764122 
	C629.325195,96.160843 633.482910,98.099388 640.695801,95.417419 
z"/>
<path fill="#000000" opacity="1.000000" stroke="none" 
	d="
M457.585724,69.040665 
	C455.103668,72.725937 458.422211,72.888863 460.111359,73.402275 
	C464.559723,74.754303 469.187592,75.514839 473.638153,76.860870 
	C483.024536,79.699684 487.228729,84.614258 487.334045,92.415215 
	C487.442261,100.429474 482.674774,106.528664 473.708252,109.355011 
	C462.959473,112.743156 451.896576,111.062408 440.945496,110.994156 
	C439.056854,110.982384 438.112335,109.791832 437.768005,107.819908 
	C436.126312,98.417892 437.450348,96.788834 446.957336,96.783798 
	C452.454620,96.780884 457.953583,96.786392 463.448303,96.648056 
	C465.620972,96.593361 468.260193,96.298927 468.389221,93.553146 
	C468.506012,91.068542 465.941437,90.773582 464.039978,90.253128 
	C459.067108,88.891983 453.963013,87.900055 449.136169,86.142975 
	C442.706268,83.802345 437.703064,79.935448 437.643555,72.129898 
	C437.585907,64.571205 441.176910,59.096951 448.854889,56.106838 
	C459.469666,51.973038 470.568298,53.926884 481.497437,53.981613 
	C483.494202,53.991611 484.091888,55.550285 484.320953,57.441330 
	C485.530121,67.424110 484.757080,68.259262 474.804474,68.273613 
	C469.167389,68.281746 463.493439,67.554535 457.585724,69.040665 
z"/>
<path fill="#000000" opacity="1.000000" stroke="none" 
	d="
M582.429199,70.641594 
	C575.007751,65.970688 569.894165,68.779259 569.470581,77.830154 
	C569.066650,86.461830 569.338867,95.125229 569.317200,103.774689 
	C569.298767,111.136414 569.300842,111.136429 561.930237,111.172440 
	C551.542603,111.223190 551.550598,111.223198 551.573120,100.968338 
	C551.588867,93.815613 551.805481,86.654358 551.538147,79.511665 
	C550.724182,57.763283 568.515564,51.554733 582.991455,54.186283 
	C595.108643,56.389042 602.097778,64.898499 602.294800,77.257141 
	C602.416687,84.906868 602.246826,92.560989 602.336853,100.211624 
	C602.371033,103.113136 601.360291,104.466949 598.291809,104.417763 
	C582.610168,104.166405 585.112488,106.408554 584.927551,91.930069 
	C584.870178,87.439491 584.862061,82.948257 584.835815,78.457298 
	C584.819946,75.745850 584.389221,73.155235 582.429199,70.641594 
z"/>
<path fill="#000000" opacity="1.000000" stroke="none" 
	d="
M353.089386,111.372864 
	C340.470703,110.997070 329.728821,107.618355 323.787903,96.028923 
	C313.626312,76.206039 326.281891,54.911205 349.335266,52.873657 
	C354.451141,52.421501 359.645203,52.835361 364.802979,52.883720 
	C368.095978,52.914593 369.412231,54.485409 369.368286,57.896072 
	C369.213196,69.930939 369.605652,68.151260 359.678894,67.938004 
	C357.185974,67.884445 354.682098,67.945847 352.194336,68.116249 
	C343.207489,68.731827 338.745392,72.798996 338.315643,80.662628 
	C337.812897,89.862404 341.152893,94.085075 350.268494,96.000664 
	C355.068085,97.009270 359.881989,96.932426 364.665588,96.250336 
	C368.245850,95.739838 369.884827,96.748627 370.091492,100.582588 
	C370.652649,110.992577 370.522797,111.250664 360.065918,111.367950 
	C357.902100,111.392220 355.737823,111.375610 353.089386,111.372864 
z"/>
<path fill="#000000" opacity="1.000000" stroke="none" 
	d="
M508.313141,43.169067 
	C508.344147,44.474171 508.345032,45.305969 508.357330,46.137604 
	C508.464172,53.361401 507.286560,54.219975 515.842712,53.872242 
	C519.426758,53.726574 520.626770,55.347382 520.337830,58.657108 
	C520.237000,59.812771 520.185852,61.003567 520.345215,62.145786 
	C521.007019,66.890778 519.137512,69.023079 514.274109,68.310715 
	C509.818695,67.658119 507.830292,69.346725 508.280792,74.090134 
	C508.640961,77.882538 508.193146,81.745132 508.411774,85.558929 
	C508.818878,92.661049 511.509491,95.571953 518.500244,95.947662 
	C522.273010,96.150414 523.581665,97.273010 523.564758,101.272804 
	C523.519470,111.961891 522.926270,112.664642 512.071716,111.053223 
	C499.256226,109.150696 492.138947,102.353073 491.495544,89.334396 
	C490.765717,74.567757 491.264893,59.741169 491.190094,44.940849 
	C491.169769,40.917789 493.013550,39.268639 497.041046,39.671711 
	C499.512451,39.919052 502.026947,39.732487 504.522064,39.746750 
	C506.534790,39.758259 508.187653,40.238075 508.313141,43.169067 
z"/>
<path fill="#000000" opacity="1.000000" stroke="none" 
	d="
M497.987305,150.016205 
	C497.986115,147.519882 497.981384,145.520248 497.983856,143.520615 
	C498.002716,128.178726 505.431152,120.331367 520.787781,119.722115 
	C526.072449,119.512444 531.395874,119.197495 536.867615,119.982155 
	C537.880005,124.227745 537.260010,128.384033 537.403992,132.491272 
	C537.468140,134.319168 536.476746,135.238846 534.639709,135.247849 
	C532.473633,135.258469 530.307739,135.288834 528.141663,135.301331 
	C517.657898,135.361786 515.376892,137.682007 515.354370,148.361099 
	C515.336853,156.692871 515.218689,165.027222 515.392639,173.355270 
	C515.467529,176.937759 514.347656,178.462814 510.573151,178.390259 
	C496.018005,178.110519 498.118774,180.061142 497.937103,166.009598 
	C497.870392,160.845123 497.965729,155.678528 497.987305,150.016205 
z"/>
<path fill="#000000" opacity="1.000000" stroke="none" 
	d="
M379.113373,63.254856 
	C387.264313,53.482494 397.935303,53.018597 409.007080,54.006615 
	C410.866211,54.172520 411.960419,55.420456 412.039429,57.379253 
	C412.072937,58.210110 412.090973,59.041782 412.103424,59.873268 
	C412.231903,68.443748 412.231171,68.443748 403.798706,68.344475 
	C395.447388,68.246170 392.358948,71.228134 392.283600,79.681725 
	C392.205017,88.499802 392.143372,97.320671 392.287384,106.136833 
	C392.345856,109.717491 391.124786,111.265228 387.401947,111.227715 
	C372.004211,111.072548 374.934235,112.675163 374.681458,99.126831 
	C374.551117,92.140968 374.664398,85.150421 374.680359,78.162018 
	C374.692383,72.892380 375.815033,67.936829 379.113373,63.254856 
z"/>
<path fill="#000000" opacity="1.000000" stroke="none" 
	d="
M527.930054,74.000877 
	C527.949646,68.518044 527.991089,63.534935 527.980530,58.551941 
	C527.974182,55.546570 529.206360,53.923599 532.419556,53.912926 
	C547.623779,53.862431 545.151794,52.137531 545.271484,65.744026 
	C545.386963,78.865601 545.139465,91.991325 545.345703,105.110603 
	C545.414551,109.491280 544.300049,111.409798 539.512756,111.269539 
	C526.557312,110.889969 528.004639,112.753113 527.944397,99.915436 
	C527.904663,91.444008 527.932495,82.972260 527.930054,74.000877 
z"/>
<path fill="#000000" opacity="1.000000" stroke="none" 
	d="
M591.177979,216.351501 
	C594.107178,216.469147 594.338623,218.267197 594.340393,220.212128 
	C594.346680,226.870834 594.361633,233.529587 594.337585,240.188202 
	C594.330933,242.018723 594.458557,244.036743 591.994385,244.510101 
	C589.762878,244.938736 588.052979,243.965683 586.956116,242.084747 
	C584.320374,237.565048 581.773987,232.993225 578.213440,228.663971 
	C578.213440,232.431320 578.237793,236.198914 578.203552,239.965958 
	C578.185364,241.967117 578.365051,244.261612 575.481689,244.404694 
	C572.429138,244.556152 572.676758,242.200272 572.667480,240.216156 
	C572.637878,233.890503 572.643127,227.564560 572.666138,221.238846 
	C572.673401,219.242783 572.501221,217.079025 575.068665,216.357300 
	C577.701599,215.617172 579.660950,216.668976 580.937927,218.940994 
	C583.366882,223.262527 585.703918,227.635727 588.812988,233.332169 
	C588.812988,228.483078 588.754028,225.080505 588.835815,221.681320 
	C588.882324,219.748383 588.485168,217.570404 591.177979,216.351501 
z"/>
<path fill="#000000" opacity="1.000000" stroke="none" 
	d="
M321.934692,236.624023 
	C320.641602,232.290482 320.760620,228.347687 321.935425,224.432205 
	C323.537659,219.092255 328.518646,215.540665 333.986328,215.784073 
	C339.563263,216.032349 343.735748,219.408081 344.948608,224.988419 
	C345.731293,228.589523 345.725342,232.308182 344.924316,235.903534 
	C343.765045,241.106842 339.638245,244.544083 334.358948,245.080963 
	C328.814819,245.644775 324.779663,242.999603 321.934692,236.624023 
M339.171753,232.723618 
	C339.879700,228.797974 339.601898,225.056274 336.375885,222.272720 
	C334.729889,220.852463 332.629913,220.948334 330.795898,222.105103 
	C326.909607,224.556274 327.112274,228.513489 327.429840,232.325302 
	C327.720337,235.811813 328.972321,239.102188 333.012817,239.452621 
	C336.969696,239.795792 338.344025,236.836838 339.171753,232.723618 
z"/>
<path fill="#000000" opacity="1.000000" stroke="none" 
	d="
M551.580688,226.756531 
	C552.410400,233.570633 551.806335,239.570160 545.713745,243.376312 
	C541.279785,246.146317 535.314087,245.710281 531.769531,242.289658 
	C526.579102,237.280685 526.854797,230.862518 528.328918,224.601944 
	C529.631470,219.069809 534.787170,215.635773 540.190369,215.825317 
	C546.278564,216.038879 549.961548,219.470581 551.580688,226.756531 
M535.226257,237.107071 
	C539.567932,240.769714 543.936584,239.747803 545.285889,234.569534 
	C546.078857,231.526489 546.042053,228.354584 545.045166,225.292633 
	C544.244568,222.833511 542.531799,221.476562 539.933411,221.349411 
	C537.268250,221.219009 535.527832,222.678223 534.562256,224.959305 
	C532.938538,228.795105 533.028320,232.668396 535.226257,237.107071 
z"/>
<path fill="#000000" opacity="1.000000" stroke="none" 
	d="
M454.708435,245.050598 
	C447.325165,244.646500 444.076813,242.378052 442.260101,236.691406 
	C440.129395,230.022079 441.785980,222.007751 446.002045,218.588379 
	C453.182861,212.764481 463.469482,216.466675 465.314758,225.539093 
	C467.461945,236.095840 464.158325,242.397812 454.708435,245.050598 
M456.280365,238.736404 
	C459.720886,235.154053 460.818329,228.843048 458.775513,224.609970 
	C457.412781,221.786179 455.086731,220.854553 452.214630,221.525162 
	C448.611176,222.366547 446.561401,227.655594 447.623901,232.895950 
	C448.707977,238.242432 450.572327,239.682693 456.280365,238.736404 
z"/>
<path fill="#000000" opacity="1.000000" stroke="none" 
	d="
M365.911377,233.938751 
	C365.940613,229.302689 365.982208,225.153366 365.990723,221.003952 
	C365.996918,217.978027 367.407227,216.528000 370.503540,216.332596 
	C373.350250,216.152939 376.159424,216.021103 378.877197,216.950562 
	C383.610138,218.569183 386.085205,223.592133 383.437805,227.708481 
	C381.373230,230.918671 381.758636,233.235214 383.233063,236.295700 
	C384.328461,238.569489 385.886993,240.955750 385.136414,243.908310 
	C381.375824,245.614700 379.647125,243.748856 378.488159,240.435318 
	C377.533691,237.706604 377.003754,234.540024 373.253845,233.619385 
	C371.497467,235.900711 372.365356,238.468796 372.182037,240.828644 
	C372.023071,242.874573 371.527679,244.465546 369.105957,244.485107 
	C366.709442,244.504471 365.986603,242.949783 365.937958,240.898209 
	C365.886810,238.741608 365.915619,236.583115 365.911377,233.938751 
M378.273010,225.230087 
	C378.176788,222.219391 376.261414,220.980042 373.710968,221.631302 
	C371.408997,222.219101 371.797180,224.894180 372.429260,226.246338 
	C374.332581,230.318146 376.288818,227.952408 378.273010,225.230087 
z"/>
<path fill="#000000" opacity="1.000000" stroke="none" 
	d="
M496.695618,244.354294 
	C486.489868,244.507126 486.501648,244.507233 486.592957,234.544937 
	C486.635681,229.884750 486.671844,225.223465 486.615875,220.563828 
	C486.583588,217.876755 487.749146,216.847198 490.456665,216.545670 
	C504.229431,215.011841 511.496796,223.402328 507.368927,236.224319 
	C505.756805,241.231918 502.339966,243.881760 496.695618,244.354294 
M501.551392,234.627914 
	C501.816803,229.960114 503.473175,224.807648 497.708954,222.057587 
	C494.180817,220.374344 492.427002,221.480392 492.303040,225.357193 
	C492.192444,228.816650 492.373077,232.285797 492.248993,235.744339 
	C492.120148,239.334991 493.760529,240.048553 496.877289,239.046738 
	C498.880646,238.402802 500.398560,237.304276 501.551392,234.627914 
z"/>
<path fill="#000000" opacity="1.000000" stroke="none" 
	d="
M698.843750,226.314758 
	C700.477844,231.252594 701.985718,235.815857 703.461060,240.389587 
	C703.958801,241.932312 704.918274,243.702454 702.451172,244.450516 
	C700.467346,245.052063 698.973633,244.344025 697.842896,242.529755 
	C694.056702,236.454605 689.680115,236.421890 686.218384,242.465118 
	C685.126709,244.370804 683.646179,245.039413 681.679565,244.429504 
	C679.221069,243.667038 680.218689,241.828125 680.708557,240.325378 
	C682.917664,233.549530 685.229126,226.806976 687.423706,220.026520 
	C688.207397,217.605392 689.360596,215.858719 692.229614,215.868210 
	C695.228699,215.878143 696.061646,218.004288 696.811401,220.286652 
	C697.432068,222.175949 698.072937,224.058640 698.843750,226.314758 
M691.190369,226.366348 
	C690.721252,228.262909 689.607666,230.035751 690.037903,232.155731 
	C691.440735,233.088196 692.757751,233.251801 694.237549,231.783096 
	C693.415100,229.775314 694.169922,227.028732 691.190369,226.366348 
z"/>
<path fill="#000000" opacity="1.000000" stroke="none" 
	d="
M425.803619,32.853004 
	C431.417542,33.950871 434.487457,37.124439 434.740936,42.429340 
	C434.939026,46.574039 432.946899,49.798050 429.090271,51.585514 
	C424.161072,53.870064 418.389862,51.664707 416.098724,46.724197 
	C413.828003,41.827705 416.004120,36.078114 421.097717,33.861439 
	C422.431641,33.280922 423.962952,33.154003 425.803619,32.853004 
z"/>
<path fill="#000000" opacity="1.000000" stroke="none" 
	d="
M526.889832,43.755524 
	C527.745422,36.237785 531.749329,32.283447 537.491760,32.836353 
	C543.074097,33.373852 546.938232,38.304272 546.280884,44.050926 
	C545.799561,48.259552 542.360718,51.775757 538.210327,52.303265 
	C532.609497,53.015121 529.321655,50.639362 526.889832,43.755524 
z"/>
<path fill="#000000" opacity="1.000000" stroke="none" 
	d="
M621.355835,243.068787 
	C621.071533,237.048599 620.902344,231.409470 620.893311,225.770065 
	C620.888977,223.062332 620.272461,221.209198 617.052307,221.321899 
	C615.469360,221.377304 613.997620,220.936874 613.940552,218.924438 
	C613.882202,216.864670 615.480164,216.427277 616.968079,216.379776 
	C621.609619,216.231567 626.258118,216.203400 630.901794,216.272446 
	C632.408569,216.294830 633.987854,216.740585 634.093445,218.710068 
	C634.198425,220.667252 632.899414,221.392212 631.216980,221.303284 
	C627.726624,221.118759 627.105408,223.073746 627.186584,226.013870 
	C627.319580,230.827286 627.335144,235.651047 627.179016,240.463257 
	C627.038269,244.801468 625.873657,245.340759 621.355835,243.068787 
z"/>
<path fill="#000000" opacity="1.000000" stroke="none" 
	d="
M587.110962,114.724365 
	C584.565308,116.531853 582.884094,119.630150 578.945740,117.548988 
	C578.098999,114.361992 579.064453,111.520523 581.580200,109.273689 
	C584.651672,106.530609 588.281555,106.501572 591.869446,107.996506 
	C595.363708,109.452385 598.652466,112.710808 602.048950,107.641426 
	C602.738098,106.612823 604.876831,106.764275 606.208923,107.787971 
	C607.498901,108.779327 607.114197,110.146858 606.796509,111.449646 
	C605.446655,116.986115 600.013855,119.775337 594.252625,117.736008 
	C591.919312,116.910057 589.717346,115.713127 587.110962,114.724365 
z"/>
<path fill="#000000" opacity="1.000000" stroke="none" 
	d="
M404.951965,216.547256 
	C410.150970,216.325943 414.954346,216.174255 419.757172,216.189606 
	C421.425232,216.194931 423.255890,216.520233 423.364868,218.755875 
	C423.480469,221.126404 421.674194,221.337021 419.953552,221.324448 
	C417.055023,221.303284 416.305145,222.946548 416.329529,225.486404 
	C416.377350,230.464630 416.322327,235.443893 416.303314,240.422699 
	C416.295258,242.527130 416.152222,244.591507 413.258698,244.480713 
	C410.630890,244.380081 410.664734,242.403198 410.657654,240.530991 
	C410.640076,235.884079 410.527557,231.233490 410.673645,226.591324 
	C410.777710,223.283356 410.107849,221.307968 406.128265,221.207550 
	C402.914764,221.126450 402.111664,219.232635 404.951965,216.547256 
z"/>
<path fill="#000000" opacity="1.000000" stroke="none" 
	d="
M660.277954,223.190491 
	C660.268188,229.311981 660.254211,234.960434 660.253662,240.608887 
	C660.253418,242.560791 660.022644,244.433197 657.549500,244.575806 
	C654.938416,244.726379 654.083862,243.005707 654.070068,240.737854 
	C654.033630,234.757507 653.915588,228.772476 654.109131,222.798355 
	C654.191711,220.248428 653.118652,216.225815 657.437134,216.380188 
	C661.348328,216.519989 659.938904,220.288452 660.277954,223.190491 
z"/>
</svg>